<svg width="56" height="56" viewBox="0 0 56 56" fill="none" xmlns="http://www.w3.org/2000/svg">
<rect width="56" height="56" rx="28" fill="#FAD1D8"/>
<path fill-rule="evenodd" clip-rule="evenodd" d="M29.139 15.6697C28.6974 14.7865 27.2516 14.7865 26.8087 15.6697L15.0859 39.1152C14.884 39.5177 14.9062 39.997 15.1432 40.3813C15.3816 40.7655 15.7997 41 16.2517 41H39.6973C40.1493 41 40.5674 40.7655 40.8044 40.3813C41.0428 39.997 41.0649 39.5177 40.8617 39.1152L29.139 15.6697ZM18.3588 38.3947L27.9741 19.1641L37.5894 38.3947H18.3588ZM26.6713 29.2773C26.6713 29.9976 27.2535 30.5799 27.9738 30.5799C28.6941 30.5799 29.2764 29.9976 29.2764 29.2773V26.6723C29.2764 25.952 28.6941 25.3697 27.9738 25.3697C27.2535 25.3697 26.6713 25.952 26.6713 26.6723V29.2773ZM26.5419 34.4879C26.5419 35.2785 27.184 35.9193 27.9747 35.9193C28.7653 35.9193 29.4075 35.2785 29.4075 34.4879C29.4075 33.6959 28.7653 33.0551 27.9747 33.0551C27.184 33.0551 26.5419 33.6959 26.5419 34.4879Z" fill="#E6173E"/>
</svg>
